# xmcd
#
# Track frame offsets:
#	150
#	17442
#	32135
#	46998
#	61639
#	78310
#
# Disc length: 1221 seconds
#
# Revision: 0
# Processed by: cddbd v1.4b41PL2 Copyright (c) Steve Scherf et al.
# Submitted via: EZCDDA 4.3.3.2
#
DISCID=3904c306
DTITLE=Patrick Masse - Get There From Here
DYEAR=1900
DGENRE=
TTITLE0=We Can Get There From Here
TTITLE1=Let's Talk About Love
TTITLE2=Hello
TTITLE3=Could I Have This Dance
TTITLE4=Crazy In The Heart
TTITLE5=You Don't Know Me
EXTD=
EXTT0=
EXTT1=
EXTT2=
EXTT3=
EXTT4=
EXTT5=
PLAYORDER=
